<svg width="129" height="132" viewBox="0 0 129 132" fill="none" xmlns="http://www.w3.org/2000/svg">
<path fill-rule="evenodd" clip-rule="evenodd" d="M17 0.271393C7.61116 0.271393 0 7.88255 0 17.2714V34.2036H27.8507C29.9736 29.7628 34.5075 26.695 39.758 26.695C45.0084 26.695 49.5424 29.7628 51.6652 34.2036H78.6761C80.799 29.7628 85.3329 26.695 90.5834 26.695C97.8681 26.695 103.774 32.6005 103.774 39.8853V40.5036C103.774 47.7884 97.8681 53.6938 90.5834 53.6938C84.9993 53.6938 80.2257 50.2239 78.3011 45.3226H53.0129L86.2382 79.3266C87.581 78.8659 89.0217 78.6158 90.5208 78.6158C97.8056 78.6158 103.711 84.5213 103.711 91.806V92.4243C103.711 99.7091 97.8056 105.615 90.5208 105.615C83.236 105.615 77.3306 99.7091 77.3306 92.4243V91.806C77.3306 90.0721 77.6651 88.4163 78.2733 86.8997L44.8375 52.6803C43.2741 53.3332 41.5581 53.6938 39.758 53.6938C34.1739 53.6938 29.4003 50.2239 27.4757 45.3226H0V65.7714V114.271C0 123.66 7.61116 131.271 17 131.271H64.2498H111.5C120.888 131.271 128.5 123.66 128.5 114.271V65.7714V17.2714C128.5 7.88255 120.888 0.271393 111.5 0.271393H64.2498H17Z" fill="#F25234"/>
</svg>
