<?xml version="1.0" standalone="no"?>
<!DOCTYPE svg PUBLIC "-//W3C//DTD SVG 20010904//EN"
 "http://www.w3.org/TR/2001/REC-SVG-20010904/DTD/svg10.dtd">
<svg version="1.0" xmlns="http://www.w3.org/2000/svg"
 width="900.000000pt" height="512.000000pt" viewBox="0 0 900.000000 512.000000"
 preserveAspectRatio="xMidYMid meet">

<g transform="translate(0.000000,512.000000) scale(0.100000,-0.100000)"
fill="#FFB02E" stroke="none">
<path d="M2392 3136 c-138 -34 -291 -144 -361 -260 -146 -243 -113 -535 84
-731 115 -116 257 -175 418 -175 322 1 587 266 587 586 0 167 -54 298 -170
415 -122 123 -258 179 -425 178 -44 0 -104 -6 -133 -13z"/>
<path d="M4356 3134 c-200 -48 -383 -233 -431 -435 -17 -76 -19 -187 -4 -261
36 -172 164 -335 321 -407 98 -46 163 -61 261 -61 321 1 586 266 587 587 0
100 -15 164 -62 263 -57 119 -153 215 -270 269 -45 21 -107 44 -136 50 -71 15
-194 13 -266 -5z"/>
<path d="M6328 3134 c-257 -62 -448 -306 -448 -570 0 -167 54 -298 170 -415
147 -148 344 -209 542 -168 168 34 331 163 407 321 83 172 82 344 -1 517 -75
156 -239 286 -406 320 -71 15 -194 13 -264 -5z"/>
</g>
</svg>
